{"glyphs":{"0":{"ha":883,"x_min":54,"x_max":829,"o":"m 422 1 l 224 1 q 103 51 153 1 q 54 171 54 100 l 54 804 q 103 924 54 875 q 224 974 153 974 l 660 974 q 780 924 731 974 q 829 804 829 875 l 829 171 q 780 51 829 100 q 660 1 731 1 l 422 1 m 575 719 l 308 719 l 308 256 l 575 256 l 575 719 z "},"1":{"ha":510,"x_min":24,"x_max":456,"o":"m 201 218 l 201 719 l 24 719 l 24 974 l 300 974 q 409 928 364 974 q 454 818 454 883 l 454 1 l 201 1 l 201 218 z "},"2":{"ha":882,"x_min":53,"x_max":829,"o":"m 193 615 l 575 615 l 575 719 l 54 719 l 54 974 l 657 974 l 663 974 q 781 925 732 974 q 829 807 829 876 l 829 500 q 800 414 829 451 q 725 365 771 376 q 689 360 707 360 l 308 360 l 308 256 l 333 256 l 829 256 l 829 1 l 221 1 q 208 1 215 1 l 54 1 l 54 475 q 73 546 54 514 q 124 597 92 578 q 193 615 156 615 z "},"3":{"ha":876,"x_min":49,"x_max":824,"o":"m 657 974 q 775 924 726 974 q 824 807 824 875 l 824 611 q 749 488 822 501 q 757 486 751 488 q 775 477 763 485 q 797 458 788 469 q 815 422 807 447 q 824 364 824 397 l 824 140 q 783 42 824 82 q 685 1 742 1 l 49 1 l 49 256 l 569 256 l 569 360 l 132 360 l 132 614 l 569 614 l 569 719 l 49 719 l 49 974 l 657 974 z "},"4":{"ha":864,"x_min":46,"x_max":808,"o":"m 808 -3 l 554 -3 l 554 358 l 215 358 q 95 408 144 358 q 46 528 46 457 l 46 974 l 300 974 l 300 613 l 554 613 l 554 974 l 808 974 l 808 -3 z "},"5":{"ha":882,"x_min":54,"x_max":829,"o":"m 221 974 l 829 974 l 829 719 l 308 719 l 308 614 l 575 614 l 689 614 q 725 610 707 614 q 800 561 771 599 q 829 475 829 524 l 829 168 q 781 50 829 99 q 663 1 732 1 l 657 1 l 54 1 l 54 256 l 575 256 l 575 360 l 308 360 l 285 360 l 193 360 q 95 401 136 360 q 54 499 54 442 l 54 974 l 208 974 q 221 974 215 974 z "},"6":{"ha":865,"x_min":54,"x_max":817,"o":"m 817 253 l 817 167 q 767 47 817 96 q 647 -3 718 -3 l 224 -3 q 103 47 153 -3 q 54 167 54 96 l 54 360 l 54 806 q 103 924 54 875 q 221 972 151 972 l 226 972 l 747 972 l 747 718 l 308 718 l 308 613 l 647 613 q 767 563 718 613 q 817 444 817 514 l 817 253 m 563 251 l 563 358 l 308 358 l 308 253 l 308 251 l 563 251 z "},"7":{"ha":856,"x_min":38,"x_max":824,"o":"m 390 1 l 38 1 l 472 718 l 38 718 l 38 972 l 822 972 l 822 718 l 390 1 z "},"8":{"ha":868,"x_min":53,"x_max":815,"o":"m 676 1 l 192 1 q 94 42 135 1 q 53 140 53 82 l 53 364 q 57 408 53 388 q 67 440 61 428 q 82 462 74 453 q 98 476 90 471 q 113 483 106 481 q 124 486 119 486 l 128 488 q 53 611 54 501 l 53 807 q 101 924 53 875 q 219 974 150 974 l 649 974 q 732 951 693 974 q 793 890 771 929 q 815 807 815 851 l 815 611 q 740 488 814 501 q 749 486 743 488 q 767 477 754 485 q 789 458 779 469 q 807 422 799 447 q 815 364 815 397 l 815 140 q 774 42 815 82 q 676 1 733 1 m 307 719 l 307 614 l 561 614 l 561 719 l 307 719 m 307 256 l 561 256 l 561 360 l 307 360 l 307 256 z "},"9":{"ha":865,"x_min":49,"x_max":811,"o":"m 811 164 q 763 46 811 94 q 644 -3 714 -3 l 639 -3 l 118 -3 l 118 251 l 557 251 l 557 357 l 218 357 q 98 406 147 357 q 49 525 49 456 l 49 717 l 49 803 q 98 923 49 874 q 218 972 147 972 l 642 972 q 762 923 713 972 q 811 803 811 874 l 811 610 l 811 164 m 557 717 l 557 718 l 303 718 l 303 611 l 557 611 l 557 717 z "},"\u0000":{"ha":0,"x_min":0,"x_max":0,"o":""},"\n":{"ha":0,"x_min":0,"x_max":0,"o":""},"\r":{"ha":0,"x_min":0,"x_max":0,"o":""}," ":{"ha":464,"x_min":0,"x_max":0,"o":""},"!":{"ha":363,"x_min":54,"x_max":308,"o":"m 308 278 l 54 278 l 54 972 l 308 972 l 308 278 m 253 236 q 292 224 275 236 q 308 194 308 211 l 308 40 q 292 12 308 24 q 253 0 275 0 l 110 0 q 70 12 86 0 q 54 40 54 24 l 54 194 q 57 208 54 201 q 65 219 60 214 q 76 228 69 224 q 92 234 83 232 q 110 236 100 236 l 253 236 z "},"\"":{"ha":607,"x_min":31,"x_max":572,"o":"m 238 1136 q 271 1125 257 1136 q 285 1097 285 1114 l 285 921 l 239 789 l 140 789 l 178 899 l 78 899 q 54 903 65 899 q 37 917 43 908 q 31 936 31 926 l 31 1097 q 44 1125 31 1114 q 78 1136 58 1136 l 238 1136 m 524 1136 q 557 1125 543 1136 q 571 1097 571 1114 l 571 921 l 525 789 l 426 789 l 465 899 l 365 899 q 347 901 356 899 q 331 910 338 904 q 321 922 325 915 q 317 936 317 929 l 317 1097 q 331 1125 317 1114 q 365 1136 346 1136 l 524 1136 z "},"#":{"ha":988,"x_min":49,"x_max":939,"o":"m 939 782 l 939 529 l 793 529 l 793 444 l 939 444 l 939 190 l 793 190 l 793 0 l 539 0 l 539 190 l 454 190 l 454 0 l 200 0 l 200 190 l 49 190 l 49 444 l 200 444 l 200 529 l 49 529 l 49 782 l 200 782 l 200 972 l 454 972 l 454 782 l 539 782 l 539 972 l 793 972 l 793 782 l 939 782 m 539 444 l 539 529 l 454 529 l 454 444 l 539 444 z "},"$":{"ha":881,"x_min":53,"x_max":828,"o":"m 828 715 l 307 715 l 307 611 l 689 611 q 787 570 746 611 q 828 471 828 529 l 828 164 q 806 80 828 118 q 744 19 783 42 q 661 -3 706 -3 l 550 -3 l 550 -151 l 296 -151 l 296 -3 l 53 -3 l 53 251 l 574 251 l 574 357 l 193 357 q 157 361 175 357 q 82 410 111 372 q 53 496 53 447 l 53 803 q 101 921 53 872 q 219 969 150 969 l 225 969 l 296 969 l 296 1124 l 550 1124 l 550 969 l 828 969 l 828 715 z "},"%":{"ha":1346,"x_min":44,"x_max":1301,"o":"m 497 517 q 467 441 497 472 q 392 410 436 410 l 150 410 q 97 424 122 410 q 58 463 72 439 q 44 517 44 488 l 44 867 q 76 941 44 910 q 150 972 107 972 l 392 972 q 467 941 436 972 q 497 867 497 910 l 497 517 m 332 575 l 332 807 l 210 807 l 210 575 l 332 575 m 1194 563 q 1269 532 1239 563 q 1300 457 1300 501 l 1300 107 q 1269 32 1300 63 q 1194 1 1239 1 l 953 1 q 878 32 910 1 q 847 107 847 63 l 847 457 q 878 532 847 501 q 953 563 910 563 l 1194 563 m 1135 167 l 1135 397 l 1013 397 l 1013 167 l 1135 167 m 744 972 l 994 972 l 614 0 l 360 0 l 744 972 z "},"&":{"ha":1015,"x_min":54,"x_max":975,"o":"m 861 374 l 974 314 l 974 28 l 853 92 q 803 26 839 51 q 722 0 767 0 l 193 0 q 95 41 136 0 q 54 139 54 82 l 54 363 q 118 483 54 463 l 100 493 q 54 569 54 518 l 54 806 q 103 924 54 875 q 221 972 151 972 l 722 972 q 820 932 779 972 q 861 833 861 892 l 861 667 l 607 667 l 607 718 l 308 718 l 308 669 l 607 510 l 607 556 l 861 556 l 861 374 m 308 254 l 549 254 l 308 382 l 308 254 z "},"'":{"ha":319,"x_min":31,"x_max":285,"o":"m 238 1136 q 271 1125 257 1136 q 285 1097 285 1114 l 285 921 l 239 789 l 140 789 l 178 899 l 78 899 q 54 903 65 899 q 37 917 43 908 q 31 936 31 926 l 31 1097 q 34 1113 31 1106 q 44 1124 38 1119 q 60 1133 51 1129 q 78 1136 68 1136 l 238 1136 z "},"(":{"ha":589,"x_min":-10,"x_max":565,"o":"m 565 1124 l 565 871 l 388 871 q 383 858 386 867 q 369 826 379 850 q 349 776 358 801 q 328 713 339 750 q 308 640 317 675 q 294 563 300 604 q 289 483 289 521 q 383 108 289 314 q 388 96 388 96 l 565 96 l 565 -157 l 289 -157 q 107 97 183 -157 q 107 869 -10 483 q 289 1124 183 1124 l 565 1124 z "},")":{"ha":589,"x_min":24,"x_max":539,"o":"m 482 869 q 539 483 539 681 q 482 97 539 286 q 300 -157 406 -157 l 24 -157 l 24 96 l 201 96 q 206 109 203 101 q 220 141 210 117 q 240 191 231 165 q 261 254 250 217 q 281 327 272 292 q 294 404 289 363 q 300 483 300 446 q 290 594 300 535 q 265 700 281 653 q 235 787 250 747 q 211 849 221 826 l 201 871 l 24 871 l 24 1124 l 300 1124 q 482 869 406 1124 z "},"*":{"ha":476,"x_min":39,"x_max":438,"o":"m 436 854 l 332 765 l 436 676 l 368 575 l 294 638 l 294 558 l 181 558 l 181 638 l 107 575 l 39 676 l 143 765 l 39 854 l 107 957 l 181 894 l 181 972 l 294 972 l 294 894 l 368 957 l 436 854 z "},"+":{"ha":582,"x_min":43,"x_max":539,"o":"m 418 635 l 538 635 l 538 382 l 418 382 l 418 261 l 164 261 l 164 382 l 43 382 l 43 635 l 164 635 l 164 756 l 418 756 l 418 635 z "},",":{"ha":332,"x_min":39,"x_max":293,"o":"m 246 238 q 279 226 265 238 q 293 199 293 215 l 293 22 l 247 -110 l 149 -110 l 186 0 l 86 0 q 53 11 67 0 q 39 38 39 22 l 39 199 q 45 218 39 210 q 63 232 51 226 q 86 238 74 238 l 246 238 z "},"-":{"ha":574,"x_min":39,"x_max":535,"o":"m 533 382 l 39 382 l 39 635 l 533 635 l 533 382 z "},".":{"ha":332,"x_min":39,"x_max":293,"o":"m 238 236 q 276 224 260 236 q 293 194 293 211 l 293 40 q 276 12 293 24 q 238 0 260 0 l 94 0 q 55 12 71 0 q 39 40 39 24 l 39 194 q 55 224 39 211 q 94 236 71 236 l 238 236 z "},"/":{"ha":774,"x_min":69,"x_max":706,"o":"m 453 972 l 704 972 l 324 0 l 69 0 l 453 972 z "},":":{"ha":346,"x_min":46,"x_max":300,"o":"m 244 236 q 283 224 267 236 q 300 194 300 211 l 300 40 q 283 12 300 24 q 244 0 267 0 l 101 0 q 62 12 78 0 q 46 40 46 24 l 46 194 q 62 224 46 211 q 101 236 78 236 l 244 236 m 244 604 q 283 592 267 604 q 300 563 300 581 l 300 410 q 283 381 300 393 q 244 368 267 368 l 176 368 l 193 368 l 164 368 l 108 368 l 101 368 q 62 381 78 368 q 46 410 46 393 l 46 563 q 62 592 46 581 q 101 604 78 604 l 244 604 z "},";":{"ha":346,"x_min":46,"x_max":300,"o":"m 101 368 q 62 381 78 368 q 46 410 46 393 l 46 563 q 62 592 46 581 q 101 604 78 604 l 244 604 q 283 592 267 604 q 300 563 300 581 l 300 410 q 283 381 300 393 q 244 368 267 368 l 176 368 l 193 368 l 164 368 l 108 368 l 101 368 m 253 238 q 286 226 272 238 q 300 199 300 215 l 300 22 l 254 -110 l 156 -110 l 193 0 l 93 0 q 60 11 74 0 q 46 38 46 22 l 46 199 q 49 214 46 207 q 60 226 53 221 q 75 234 67 231 q 93 238 83 238 l 253 238 z "},"<":{"ha":799,"x_min":35,"x_max":751,"o":"m 750 850 l 750 625 l 379 508 l 750 392 l 750 168 l 129 363 q 61 416 88 375 q 35 508 35 457 q 61 601 35 560 q 129 654 88 642 l 750 850 z "},"=":{"ha":582,"x_min":43,"x_max":539,"o":"m 538 493 l 43 493 l 43 681 l 538 681 l 538 493 m 538 261 l 43 261 l 43 449 l 538 449 l 538 261 z "},">":{"ha":799,"x_min":47,"x_max":764,"o":"m 669 654 q 718 624 697 646 q 751 572 739 603 q 763 508 763 542 q 737 416 763 457 q 669 363 711 375 l 47 168 l 47 392 l 418 508 l 47 625 l 47 850 l 669 654 z "},"?":{"ha":846,"x_min":26,"x_max":801,"o":"m 404 236 q 444 224 428 236 q 460 194 460 211 l 460 40 q 444 12 460 24 q 404 0 428 0 l 261 0 q 222 12 238 0 q 206 40 206 24 l 206 194 q 222 224 206 211 q 261 236 238 236 l 404 236 m 635 972 q 753 924 704 972 q 801 806 801 875 l 801 499 q 772 413 801 450 q 697 364 743 375 q 661 360 679 360 l 547 360 l 457 360 l 457 278 l 204 278 l 204 475 q 244 573 204 532 q 343 614 285 614 l 547 614 l 547 718 l 26 718 l 26 972 l 629 972 l 635 972 z "},"@":{"ha":1011,"x_min":54,"x_max":963,"o":"m 800 967 q 863 954 833 967 q 915 920 893 942 q 949 869 936 899 q 961 806 961 839 l 961 396 q 914 282 961 329 q 800 235 867 235 l 613 235 q 572 251 589 235 q 556 290 556 268 l 410 290 q 331 323 364 290 q 299 401 299 356 l 299 615 q 331 694 299 661 q 410 726 364 726 l 717 726 l 717 396 l 774 396 l 774 779 l 242 779 l 242 188 l 725 188 l 725 0 l 229 0 l 215 0 q 101 47 149 0 q 54 161 54 94 l 54 806 q 76 887 54 850 q 134 945 97 924 q 215 967 171 967 l 800 967 m 460 451 l 556 451 l 556 565 l 460 565 l 460 451 z "},"A":{"ha":764,"x_min":-4,"x_max":768,"o":"m 546 844 l 767 0 l 513 0 l 382 504 l 250 0 l -4 0 l 217 844 q 251 911 226 882 q 309 956 275 940 q 382 972 343 972 q 485 937 439 972 q 546 844 532 901 z "},"À":{"ha":764,"x_min":-4,"x_max":768,"o":"m 546 844 l 767 0 l 513 0 l 382 504 l 250 0 l -4 0 l 217 844 q 251 911 226 882 q 309 956 275 940 q 382 972 343 972 q 485 937 439 972 q 546 844 532 901 z "},"Á":{"ha":764,"x_min":-4,"x_max":768,"o":"m 546 844 l 767 0 l 513 0 l 382 504 l 250 0 l -4 0 l 217 844 q 251 911 226 882 q 309 956 275 940 q 382 972 343 972 q 485 937 439 972 q 546 844 532 901 z "},"Â":{"ha":764,"x_min":-4,"x_max":768,"o":"m 546 844 l 767 0 l 513 0 l 382 504 l 250 0 l -4 0 l 217 844 q 251 911 226 882 q 309 956 275 940 q 382 972 343 972 q 485 937 439 972 q 546 844 532 901 z "},"Ã":{"ha":764,"x_min":-4,"x_max":768,"o":"m 546 844 l 767 0 l 513 0 l 382 504 l 250 0 l -4 0 l 217 844 q 251 911 226 882 q 309 956 275 940 q 382 972 343 972 q 485 937 439 972 q 546 844 532 901 z "},"Ä":{"ha":764,"x_min":-4,"x_max":768,"o":"m 546 844 l 767 0 l 513 0 l 382 504 l 250 0 l -4 0 l 217 844 q 251 911 226 882 q 309 956 275 940 q 382 972 343 972 q 485 937 439 972 q 546 844 532 901 z "},"Å":{"ha":764,"x_min":-4,"x_max":768,"o":"m 546 844 l 767 0 l 513 0 l 382 504 l 250 0 l -4 0 l 217 844 q 251 911 226 882 q 309 956 275 940 q 382 972 343 972 q 485 937 439 972 q 546 844 532 901 z "},"B":{"ha":846,"x_min":42,"x_max":817,"o":"m 721 597 q 790 536 764 576 q 817 446 817 496 l 817 139 q 798 69 817 101 q 747 19 779 38 q 678 0 715 0 l 42 0 l 42 613 l 467 613 l 467 718 l 258 718 q 183 740 218 718 q 131 797 149 761 l 42 972 l 554 972 q 672 923 622 972 q 721 806 721 874 l 721 597 m 563 254 l 563 360 l 296 360 l 296 254 l 563 254 z "},"C":{"ha":851,"x_min":49,"x_max":824,"o":"m 824 718 l 303 718 l 303 254 l 824 254 l 824 0 l 218 0 q 98 49 147 0 q 49 169 49 99 l 49 803 q 98 923 49 874 q 218 972 147 972 l 824 972 l 824 718 z "},"Ç":{"ha":851,"x_min":49,"x_max":824,"o":"m 824 718 l 303 718 l 303 254 l 824 254 l 824 0 l 218 0 q 98 49 147 0 q 49 169 49 99 l 49 803 q 98 923 49 874 q 218 972 147 972 l 824 972 l 824 718 z "},"D":{"ha":865,"x_min":42,"x_max":817,"o":"m 647 972 q 767 923 718 972 q 817 803 817 874 l 817 169 q 767 49 817 99 q 647 0 718 0 l 42 0 l 42 614 l 296 614 l 296 254 l 563 254 l 563 718 l 258 718 q 183 740 218 718 q 131 797 149 761 l 42 972 l 647 972 z "},"E":{"ha":842,"x_min":38,"x_max":813,"o":"m 292 360 l 292 254 l 813 254 l 813 0 l 199 0 q 85 47 132 0 q 38 161 38 94 l 38 614 l 689 614 l 689 360 l 292 360 m 38 972 l 813 972 l 813 718 l 254 718 q 179 740 214 718 q 126 797 144 761 l 38 972 z "},"È":{"ha":842,"x_min":38,"x_max":813,"o":"m 292 360 l 292 254 l 813 254 l 813 0 l 199 0 q 85 47 132 0 q 38 161 38 94 l 38 614 l 689 614 l 689 360 l 292 360 m 38 972 l 813 972 l 813 718 l 254 718 q 179 740 214 718 q 126 797 144 761 l 38 972 z "},"É":{"ha":842,"x_min":38,"x_max":813,"o":"m 292 360 l 292 254 l 813 254 l 813 0 l 199 0 q 85 47 132 0 q 38 161 38 94 l 38 614 l 689 614 l 689 360 l 292 360 m 38 972 l 813 972 l 813 718 l 254 718 q 179 740 214 718 q 126 797 144 761 l 38 972 z "},"Ê":{"ha":842,"x_min":38,"x_max":813,"o":"m 292 360 l 292 254 l 813 254 l 813 0 l 199 0 q 85 47 132 0 q 38 161 38 94 l 38 614 l 689 614 l 689 360 l 292 360 m 38 972 l 813 972 l 813 718 l 254 718 q 179 740 214 718 q 126 797 144 761 l 38 972 z "},"Ë":{"ha":842,"x_min":38,"x_max":813,"o":"m 292 360 l 292 254 l 813 254 l 813 0 l 199 0 q 85 47 132 0 q 38 161 38 94 l 38 614 l 689 614 l 689 360 l 292 360 m 38 972 l 813 972 l 813 718 l 254 718 q 179 740 214 718 q 126 797 144 761 l 38 972 z "},"F":{"ha":818,"x_min":40,"x_max":815,"o":"m 294 614 l 294 613 l 693 613 l 693 360 l 294 360 l 294 0 l 40 0 l 40 614 l 294 614 m 40 972 l 815 972 l 815 718 l 257 718 q 182 740 217 718 q 129 797 147 761 l 40 972 z "},"G":{"ha":876,"x_min":49,"x_max":824,"o":"m 824 718 l 303 718 l 303 254 l 569 254 l 569 360 l 556 360 q 481 381 515 360 q 428 438 446 401 l 339 613 l 824 613 l 824 0 l 218 0 q 98 49 147 0 q 49 169 49 99 l 49 803 q 98 923 49 874 q 218 972 147 972 l 824 972 l 824 718 z "},"H":{"ha":886,"x_min":56,"x_max":831,"o":"m 310 0 l 56 0 l 56 972 l 310 972 l 310 0 m 576 972 l 831 972 l 831 0 l 576 0 l 576 360 l 533 360 q 458 381 492 360 q 406 438 424 401 l 317 613 l 576 613 l 576 972 z "},"I":{"ha":358,"x_min":56,"x_max":310,"o":"m 231 883 q 272 851 254 871 q 300 807 290 832 q 310 756 310 782 l 310 0 l 56 0 l 56 972 l 231 883 z "},"Ì":{"ha":358,"x_min":56,"x_max":310,"o":"m 231 883 q 272 851 254 871 q 300 807 290 832 q 310 756 310 782 l 310 0 l 56 0 l 56 972 l 231 883 z "},"Í":{"ha":358,"x_min":56,"x_max":310,"o":"m 231 883 q 272 851 254 871 q 300 807 290 832 q 310 756 310 782 l 310 0 l 56 0 l 56 972 l 231 883 z "},"Î":{"ha":358,"x_min":56,"x_max":310,"o":"m 231 883 q 272 851 254 871 q 300 807 290 832 q 310 756 310 782 l 310 0 l 56 0 l 56 972 l 231 883 z "},"Ï":{"ha":358,"x_min":56,"x_max":310,"o":"m 231 883 q 272 851 254 871 q 300 807 290 832 q 310 756 310 782 l 310 0 l 56 0 l 56 972 l 231 883 z "},"J":{"ha":833,"x_min":13,"x_max":788,"o":"m 533 254 l 533 614 l 788 614 l 788 169 q 738 49 788 99 q 618 0 689 0 l 13 0 l 13 360 l 267 360 l 267 254 l 533 254 m 172 972 l 788 972 l 788 718 l 389 718 q 314 740 349 718 q 261 797 279 761 l 172 972 z "},"K":{"ha":836,"x_min":56,"x_max":831,"o":"m 831 972 l 642 486 l 831 0 l 576 0 l 440 358 l 310 358 l 310 0 l 56 0 l 56 972 l 231 883 q 288 831 267 865 q 310 756 310 796 l 310 613 l 440 613 l 576 972 l 831 972 z "},"L":{"ha":694,"x_min":53,"x_max":694,"o":"m 307 254 l 693 254 l 693 0 l 207 0 q 98 45 143 0 q 53 156 53 90 l 53 972 l 228 883 q 285 831 264 865 q 307 756 307 796 l 307 254 z "},"M":{"ha":1253,"x_min":53,"x_max":1200,"o":"m 1044 972 q 1153 927 1108 972 q 1199 818 1199 882 l 1199 0 l 946 0 l 946 419 l 806 115 q 733 31 782 63 q 626 0 683 0 q 519 31 568 0 q 446 115 471 63 l 307 419 l 307 0 l 53 0 l 53 818 q 98 927 53 882 q 207 972 143 972 q 291 948 253 972 q 349 882 329 924 l 626 276 l 904 882 q 960 948 922 924 q 1044 972 999 972 z "},"N":{"ha":881,"x_min":53,"x_max":828,"o":"m 574 972 l 828 972 l 828 158 q 781 47 828 93 q 669 0 735 0 q 588 22 625 0 q 529 83 550 44 l 307 499 l 307 0 l 53 0 l 53 557 l 53 814 q 65 876 53 846 q 99 926 78 906 q 150 960 121 947 q 211 972 179 972 q 267 963 240 972 q 316 933 294 953 q 351 889 338 914 l 574 474 l 574 972 z "},"Ñ":{"ha":881,"x_min":53,"x_max":828,"o":"m 574 972 l 828 972 l 828 158 q 781 47 828 93 q 669 0 735 0 q 588 22 625 0 q 529 83 550 44 l 307 499 l 307 0 l 53 0 l 53 557 l 53 814 q 65 876 53 846 q 99 926 78 906 q 150 960 121 947 q 211 972 179 972 q 267 963 240 972 q 316 933 294 953 q 351 889 338 914 l 574 474 l 574 972 z "},"O":{"ha":913,"x_min":49,"x_max":864,"o":"m 694 972 q 815 923 765 972 q 864 803 864 874 l 864 169 q 815 49 864 99 q 694 0 765 0 l 218 0 q 98 49 147 0 q 49 169 49 99 l 49 803 q 98 923 49 874 q 218 972 147 972 l 694 972 m 303 254 l 610 254 l 610 718 l 303 718 l 303 254 z "},"Ò":{"ha":913,"x_min":49,"x_max":864,"o":"m 694 972 q 815 923 765 972 q 864 803 864 874 l 864 169 q 815 49 864 99 q 694 0 765 0 l 218 0 q 98 49 147 0 q 49 169 49 99 l 49 803 q 98 923 49 874 q 218 972 147 972 l 694 972 m 303 254 l 610 254 l 610 718 l 303 718 l 303 254 z "},"Ó":{"ha":913,"x_min":49,"x_max":864,"o":"m 694 972 q 815 923 765 972 q 864 803 864 874 l 864 169 q 815 49 864 99 q 694 0 765 0 l 218 0 q 98 49 147 0 q 49 169 49 99 l 49 803 q 98 923 49 874 q 218 972 147 972 l 694 972 m 303 254 l 610 254 l 610 718 l 303 718 l 303 254 z "},"Ô":{"ha":913,"x_min":49,"x_max":864,"o":"m 694 972 q 815 923 765 972 q 864 803 864 874 l 864 169 q 815 49 864 99 q 694 0 765 0 l 218 0 q 98 49 147 0 q 49 169 49 99 l 49 803 q 98 923 49 874 q 218 972 147 972 l 694 972 m 303 254 l 610 254 l 610 718 l 303 718 l 303 254 z "},"Õ":{"ha":913,"x_min":49,"x_max":864,"o":"m 694 972 q 815 923 765 972 q 864 803 864 874 l 864 169 q 815 49 864 99 q 694 0 765 0 l 218 0 q 98 49 147 0 q 49 169 49 99 l 49 803 q 98 923 49 874 q 218 972 147 972 l 694 972 m 303 254 l 610 254 l 610 718 l 303 718 l 303 254 z "},"Ö":{"ha":913,"x_min":49,"x_max":864,"o":"m 694 972 q 815 923 765 972 q 864 803 864 874 l 864 169 q 815 49 864 99 q 694 0 765 0 l 218 0 q 98 49 147 0 q 49 169 49 99 l 49 803 q 98 923 49 874 q 218 972 147 972 l 694 972 m 303 254 l 610 254 l 610 718 l 303 718 l 303 254 z "},"Ø":{"ha":913,"x_min":49,"x_max":864,"o":"m 694 972 q 815 923 765 972 q 864 803 864 874 l 864 169 q 815 49 864 99 q 694 0 765 0 l 218 0 q 98 49 147 0 q 49 169 49 99 l 49 803 q 98 923 49 874 q 218 972 147 972 l 694 972 m 303 254 l 610 254 l 610 718 l 303 718 l 303 254 z "},"P":{"ha":839,"x_min":42,"x_max":817,"o":"m 650 972 q 768 924 719 972 q 817 806 817 875 l 817 499 q 798 428 817 460 q 747 377 779 396 q 678 358 715 358 l 296 358 l 296 0 l 42 0 l 42 358 l 42 613 l 563 613 l 563 718 l 258 718 q 183 740 218 718 q 131 797 149 761 l 42 972 l 650 972 z "},"Q":{"ha":913,"x_min":49,"x_max":864,"o":"m 694 972 q 815 923 765 972 q 864 803 864 874 l 864 169 q 815 49 864 99 q 694 0 765 0 l 671 0 l 710 -144 l 482 -144 l 443 0 l 218 0 q 98 49 147 0 q 49 169 49 99 l 49 803 q 98 923 49 874 q 218 972 147 972 l 694 972 m 610 254 l 610 718 l 303 718 l 303 254 l 375 254 l 329 424 l 557 424 l 603 254 l 610 254 z "},"R":{"ha":853,"x_min":42,"x_max":817,"o":"m 650 972 q 768 923 719 972 q 817 806 817 874 l 817 499 q 776 400 817 440 q 678 360 735 360 l 817 0 l 563 0 l 424 360 l 296 360 l 296 0 l 42 0 l 42 613 l 563 613 l 563 718 l 258 718 q 219 724 239 718 q 183 740 200 729 q 153 765 167 750 q 131 797 139 779 l 42 972 l 650 972 z "},"S":{"ha":857,"x_min":46,"x_max":822,"o":"m 683 614 q 781 573 740 614 q 822 474 822 532 l 822 167 q 800 83 822 121 q 739 22 778 44 q 656 0 700 0 l 47 0 l 47 254 l 568 254 l 568 360 l 188 360 q 151 364 169 360 q 76 413 106 375 q 47 499 47 450 l 47 806 q 96 924 47 875 q 214 972 144 972 l 822 972 l 733 797 q 681 740 715 761 q 606 718 646 718 l 301 718 l 301 614 l 683 614 z "},"T":{"ha":775,"x_min":0,"x_max":775,"o":"m 775 972 l 775 719 l 0 719 l 0 972 l 775 972 m 514 503 l 514 0 l 261 0 l 261 719 l 436 631 q 493 578 472 613 q 514 503 514 543 z "},"U":{"ha":881,"x_min":53,"x_max":828,"o":"m 828 972 l 828 169 q 778 49 828 99 q 658 0 729 0 l 222 0 q 102 49 151 0 q 53 169 53 99 l 53 972 l 307 972 l 307 254 l 574 254 l 574 972 l 828 972 z "},"Ù":{"ha":881,"x_min":53,"x_max":828,"o":"m 828 972 l 828 169 q 778 49 828 99 q 658 0 729 0 l 222 0 q 102 49 151 0 q 53 169 53 99 l 53 972 l 307 972 l 307 254 l 574 254 l 574 972 l 828 972 z "},"Ú":{"ha":881,"x_min":53,"x_max":828,"o":"m 828 972 l 828 169 q 778 49 828 99 q 658 0 729 0 l 222 0 q 102 49 151 0 q 53 169 53 99 l 53 972 l 307 972 l 307 254 l 574 254 l 574 972 l 828 972 z "},"Û":{"ha":881,"x_min":53,"x_max":828,"o":"m 828 972 l 828 169 q 778 49 828 99 q 658 0 729 0 l 222 0 q 102 49 151 0 q 53 169 53 99 l 53 972 l 307 972 l 307 254 l 574 254 l 574 972 l 828 972 z "},"Ü":{"ha":881,"x_min":53,"x_max":828,"o":"m 828 972 l 828 169 q 778 49 828 99 q 658 0 729 0 l 222 0 q 102 49 151 0 q 53 169 53 99 l 53 972 l 307 972 l 307 254 l 574 254 l 574 972 l 828 972 z "},"V":{"ha":764,"x_min":-6,"x_max":768,"o":"m 513 972 l 767 972 l 546 128 q 485 35 532 71 q 381 0 439 0 q 277 35 324 0 q 217 128 231 71 l -4 972 l 250 972 l 382 468 l 513 972 z "},"W":{"ha":1281,"x_min":-4,"x_max":1285,"o":"m 1031 972 l 1285 972 l 1064 128 q 1003 35 1049 71 q 899 0 957 0 q 794 35 840 0 q 733 128 749 71 l 640 486 l 546 128 q 485 35 532 71 q 381 0 439 0 q 277 35 324 0 q 217 128 231 71 l -4 972 l 250 972 l 382 468 l 481 849 q 539 938 494 904 q 640 972 583 972 q 740 938 696 972 q 799 849 785 904 l 899 468 l 1031 972 z "},"X":{"ha":800,"x_min":7,"x_max":794,"o":"m 793 972 l 604 483 l 792 0 l 538 0 l 401 360 l 397 360 l 261 0 l 7 0 l 197 488 l 8 972 l 263 972 l 399 614 l 403 614 l 539 972 l 793 972 z "},"Y":{"ha":761,"x_min":-12,"x_max":774,"o":"m 518 972 l 772 972 l 511 294 l 511 0 l 257 0 l 257 279 l -12 972 l 242 972 l 381 608 l 518 972 z "},"Ý":{"ha":761,"x_min":-12,"x_max":774,"o":"m 518 972 l 772 972 l 511 294 l 511 0 l 257 0 l 257 279 l -12 972 l 242 972 l 381 608 l 518 972 z "},"Ÿ":{"ha":761,"x_min":-12,"x_max":774,"o":"m 518 972 l 772 972 l 511 294 l 511 0 l 257 0 l 257 279 l -12 972 l 242 972 l 381 608 l 518 972 z "},"Z":{"ha":840,"x_min":26,"x_max":813,"o":"m 763 665 l 379 254 l 811 254 l 811 0 l 208 0 q 80 53 133 0 q 26 182 26 107 q 75 306 26 254 l 213 453 l 461 718 l 26 718 l 26 972 l 629 972 q 758 919 704 972 q 811 790 811 865 q 763 665 811 718 z "},"[":{"ha":517,"x_min":56,"x_max":488,"o":"m 310 871 l 310 103 l 486 103 l 486 -151 l 210 -151 q 101 -106 146 -151 q 56 3 56 -61 l 56 969 q 101 1078 56 1033 q 210 1124 146 1124 l 486 1124 l 486 871 l 310 871 z "},"\\":{"ha":774,"x_min":69,"x_max":706,"o":"m 321 972 l 704 0 l 450 0 l 69 972 l 321 972 z "},"]":{"ha":517,"x_min":29,"x_max":461,"o":"m 460 969 l 460 3 q 415 -106 460 -61 q 306 -151 369 -151 l 29 -151 l 29 103 l 207 103 l 207 871 l 29 871 l 29 1124 l 306 1124 q 415 1078 369 1124 q 460 969 460 1033 z "},"^":{"ha":465,"x_min":33,"x_max":432,"o":"m 322 914 l 431 563 l 286 563 l 232 736 l 178 563 l 33 563 l 142 914 q 160 944 147 931 q 192 965 174 957 q 232 972 211 972 q 289 956 264 972 q 322 914 314 939 z "},"_":{"ha":971,"x_min":40,"x_max":931,"o":"m 931 0 l 40 0 l 40 254 l 931 254 l 931 0 z "},"`":{"ha":333,"x_min":29,"x_max":303,"o":"m 196 972 l 303 726 l 143 726 l 29 972 l 196 972 z "},"a":{"ha":764,"x_min":-4,"x_max":768,"o":"m 382 504 l 250 0 l -4 0 l 217 844 q 277 937 231 901 q 382 972 324 972 q 453 956 419 972 q 512 911 488 940 q 546 844 536 882 l 767 0 l 513 0 l 382 504 z "},"à":{"ha":764,"x_min":-4,"x_max":768,"o":"m 382 504 l 250 0 l -4 0 l 217 844 q 277 937 231 901 q 382 972 324 972 q 453 956 419 972 q 512 911 488 940 q 546 844 536 882 l 767 0 l 513 0 l 382 504 z "},"á":{"ha":764,"x_min":-4,"x_max":768,"o":"m 382 504 l 250 0 l -4 0 l 217 844 q 277 937 231 901 q 382 972 324 972 q 453 956 419 972 q 512 911 488 940 q 546 844 536 882 l 767 0 l 513 0 l 382 504 z "},"â":{"ha":764,"x_min":-4,"x_max":768,"o":"m 382 504 l 250 0 l -4 0 l 217 844 q 277 937 231 901 q 382 972 324 972 q 453 956 419 972 q 512 911 488 940 q 546 844 536 882 l 767 0 l 513 0 l 382 504 z "},"ã":{"ha":764,"x_min":-4,"x_max":768,"o":"m 382 504 l 250 0 l -4 0 l 217 844 q 277 937 231 901 q 382 972 324 972 q 453 956 419 972 q 512 911 488 940 q 546 844 536 882 l 767 0 l 513 0 l 382 504 z "},"ä":{"ha":764,"x_min":-4,"x_max":768,"o":"m 382 504 l 250 0 l -4 0 l 217 844 q 277 937 231 901 q 382 972 324 972 q 453 956 419 972 q 512 911 488 940 q 546 844 536 882 l 767 0 l 513 0 l 382 504 z "},"å":{"ha":764,"x_min":-4,"x_max":768,"o":"m 382 504 l 250 0 l -4 0 l 217 844 q 277 937 231 901 q 382 972 324 972 q 453 956 419 972 q 512 911 488 940 q 546 844 536 882 l 767 0 l 513 0 l 382 504 z "},"b":{"ha":860,"x_min":56,"x_max":831,"o":"m 56 613 l 56 972 l 443 972 l 568 972 q 685 923 636 972 q 735 806 735 874 l 735 597 q 804 536 778 576 q 831 446 831 496 l 831 139 q 790 41 831 82 q 692 0 749 0 l 56 0 l 56 613 m 310 254 l 576 254 l 576 360 l 310 360 l 310 254 m 481 613 l 481 718 l 310 718 l 310 613 l 481 613 z "},"c":{"ha":851,"x_min":47,"x_max":824,"o":"m 218 0 q 98 49 147 0 q 49 169 49 99 l 49 803 q 98 923 49 874 q 218 972 147 972 l 824 972 l 824 718 l 303 718 l 303 254 l 824 254 l 824 0 l 218 0 z "},"ç":{"ha":851,"x_min":47,"x_max":824,"o":"m 218 0 q 98 49 147 0 q 49 169 49 99 l 49 803 q 98 923 49 874 q 218 972 147 972 l 824 972 l 824 718 l 303 718 l 303 254 l 824 254 l 824 0 l 218 0 z "},"d":{"ha":879,"x_min":56,"x_max":831,"o":"m 661 0 l 56 0 l 56 972 l 661 972 q 781 923 732 972 q 831 803 831 874 l 831 169 q 781 49 831 99 q 661 0 732 0 m 310 718 l 310 254 l 576 254 l 576 718 l 310 718 z "},"e":{"ha":856,"x_min":50,"x_max":825,"o":"m 50 161 l 50 169 l 50 803 q 99 923 50 874 q 219 972 149 972 l 825 972 l 825 718 l 304 718 l 304 614 l 701 614 l 701 360 l 304 360 l 304 254 l 825 254 l 825 0 l 211 0 q 97 47 144 0 q 50 161 50 94 z "},"è":{"ha":856,"x_min":50,"x_max":825,"o":"m 50 161 l 50 169 l 50 803 q 99 923 50 874 q 219 972 149 972 l 825 972 l 825 718 l 304 718 l 304 614 l 701 614 l 701 360 l 304 360 l 304 254 l 825 254 l 825 0 l 211 0 q 97 47 144 0 q 50 161 50 94 z "},"é":{"ha":856,"x_min":50,"x_max":825,"o":"m 50 161 l 50 169 l 50 803 q 99 923 50 874 q 219 972 149 972 l 825 972 l 825 718 l 304 718 l 304 614 l 701 614 l 701 360 l 304 360 l 304 254 l 825 254 l 825 0 l 211 0 q 97 47 144 0 q 50 161 50 94 z "},"ê":{"ha":856,"x_min":50,"x_max":825,"o":"m 50 161 l 50 169 l 50 803 q 99 923 50 874 q 219 972 149 972 l 825 972 l 825 718 l 304 718 l 304 614 l 701 614 l 701 360 l 304 360 l 304 254 l 825 254 l 825 0 l 211 0 q 97 47 144 0 q 50 161 50 94 z "},"ë":{"ha":856,"x_min":50,"x_max":825,"o":"m 50 161 l 50 169 l 50 803 q 99 923 50 874 q 219 972 149 972 l 825 972 l 825 718 l 304 718 l 304 614 l 701 614 l 701 360 l 304 360 l 304 254 l 825 254 l 825 0 l 211 0 q 97 47 144 0 q 50 161 50 94 z "},"f":{"ha":833,"x_min":53,"x_max":828,"o":"m 307 972 l 828 972 l 828 718 l 307 718 l 307 613 l 706 613 l 706 360 l 307 360 l 307 0 l 53 0 l 53 807 q 101 924 53 875 q 218 972 150 972 l 307 972 z "},"g":{"ha":876,"x_min":49,"x_max":824,"o":"m 218 0 q 98 49 147 0 q 49 169 49 99 l 49 803 q 98 923 49 874 q 218 972 147 972 l 824 972 l 824 718 l 303 718 l 303 254 l 569 254 l 569 360 l 399 360 l 399 613 l 824 613 l 824 0 l 218 0 z "},"h":{"ha":886,"x_min":56,"x_max":831,"o":"m 310 0 l 56 0 l 56 972 l 310 972 l 310 613 l 576 613 l 576 972 l 831 972 l 831 0 l 576 0 l 576 360 l 310 360 l 310 0 z "},"i":{"ha":365,"x_min":56,"x_max":310,"o":"m 310 0 l 56 0 l 56 972 l 310 972 l 310 0 z "},"ì":{"ha":365,"x_min":56,"x_max":310,"o":"m 310 0 l 56 0 l 56 972 l 310 972 l 310 0 z "},"í":{"ha":365,"x_min":56,"x_max":310,"o":"m 310 0 l 56 0 l 56 972 l 310 972 l 310 0 z "},"î":{"ha":365,"x_min":56,"x_max":310,"o":"m 310 0 l 56 0 l 56 972 l 310 972 l 310 0 z "},"ï":{"ha":365,"x_min":56,"x_max":310,"o":"m 310 0 l 56 0 l 56 972 l 310 972 l 310 0 z "},"j":{"ha":838,"x_min":10,"x_max":785,"o":"m 615 0 l 10 0 l 10 360 l 264 360 l 264 254 l 531 254 l 531 718 l 258 718 l 258 972 l 785 972 l 785 169 q 735 49 785 99 q 615 0 686 0 z "},"k":{"ha":836,"x_min":56,"x_max":831,"o":"m 310 0 l 56 0 l 56 972 l 310 972 l 310 613 l 440 613 l 576 972 l 831 972 l 642 486 l 831 0 l 576 0 l 440 360 l 310 360 l 310 0 z "},"l":{"ha":694,"x_min":53,"x_max":694,"o":"m 207 0 q 98 45 143 0 q 53 156 53 90 l 53 972 l 307 972 l 307 756 l 307 254 l 693 254 l 693 0 l 207 0 z "},"m":{"ha":1253,"x_min":53,"x_max":1200,"o":"m 307 419 l 307 0 l 53 0 l 53 818 q 98 927 53 882 q 207 972 143 972 q 291 948 253 972 q 349 882 329 924 l 626 276 l 904 882 q 960 948 922 924 q 1044 972 999 972 q 1153 927 1108 972 q 1199 818 1199 882 l 1199 0 l 946 0 l 946 419 l 806 115 q 733 31 782 63 q 626 0 683 0 q 519 31 568 0 q 446 115 471 63 l 307 419 z "},"n":{"ha":881,"x_min":53,"x_max":828,"o":"m 307 499 l 307 0 l 53 0 l 53 557 l 53 814 q 99 926 53 879 q 211 972 146 972 q 293 950 256 972 q 351 889 331 928 l 574 474 l 574 972 l 828 972 l 828 158 q 781 47 828 93 q 669 0 735 0 q 588 22 625 0 q 529 83 550 44 l 307 499 z "},"ñ":{"ha":881,"x_min":53,"x_max":828,"o":"m 307 499 l 307 0 l 53 0 l 53 557 l 53 814 q 99 926 53 879 q 211 972 146 972 q 293 950 256 972 q 351 889 331 928 l 574 474 l 574 972 l 828 972 l 828 158 q 781 47 828 93 q 669 0 735 0 q 588 22 625 0 q 529 83 550 44 l 307 499 z "},"o":{"ha":913,"x_min":47,"x_max":864,"o":"m 218 0 q 98 49 147 0 q 49 169 49 99 l 49 803 q 98 923 49 874 q 218 972 147 972 l 694 972 q 815 923 765 972 q 864 803 864 874 l 864 169 q 815 49 864 99 q 694 0 765 0 l 218 0 m 610 718 l 303 718 l 303 254 l 610 254 l 610 718 z "},"ò":{"ha":913,"x_min":47,"x_max":864,"o":"m 218 0 q 98 49 147 0 q 49 169 49 99 l 49 803 q 98 923 49 874 q 218 972 147 972 l 694 972 q 815 923 765 972 q 864 803 864 874 l 864 169 q 815 49 864 99 q 694 0 765 0 l 218 0 m 610 718 l 303 718 l 303 254 l 610 254 l 610 718 z "},"ó":{"ha":913,"x_min":47,"x_max":864,"o":"m 218 0 q 98 49 147 0 q 49 169 49 99 l 49 803 q 98 923 49 874 q 218 972 147 972 l 694 972 q 815 923 765 972 q 864 803 864 874 l 864 169 q 815 49 864 99 q 694 0 765 0 l 218 0 m 610 718 l 303 718 l 303 254 l 610 254 l 610 718 z "},"ô":{"ha":913,"x_min":47,"x_max":864,"o":"m 218 0 q 98 49 147 0 q 49 169 49 99 l 49 803 q 98 923 49 874 q 218 972 147 972 l 694 972 q 815 923 765 972 q 864 803 864 874 l 864 169 q 815 49 864 99 q 694 0 765 0 l 218 0 m 610 718 l 303 718 l 303 254 l 610 254 l 610 718 z "},"õ":{"ha":913,"x_min":47,"x_max":864,"o":"m 218 0 q 98 49 147 0 q 49 169 49 99 l 49 803 q 98 923 49 874 q 218 972 147 972 l 694 972 q 815 923 765 972 q 864 803 864 874 l 864 169 q 815 49 864 99 q 694 0 765 0 l 218 0 m 610 718 l 303 718 l 303 254 l 610 254 l 610 718 z "},"ö":{"ha":913,"x_min":47,"x_max":864,"o":"m 218 0 q 98 49 147 0 q 49 169 49 99 l 49 803 q 98 923 49 874 q 218 972 147 972 l 694 972 q 815 923 765 972 q 864 803 864 874 l 864 169 q 815 49 864 99 q 694 0 765 0 l 218 0 m 610 718 l 303 718 l 303 254 l 610 254 l 610 718 z "},"ø":{"ha":913,"x_min":47,"x_max":864,"o":"m 218 0 q 98 49 147 0 q 49 169 49 99 l 49 803 q 98 923 49 874 q 218 972 147 972 l 694 972 q 815 923 765 972 q 864 803 864 874 l 864 169 q 815 49 864 99 q 694 0 765 0 l 218 0 m 610 718 l 303 718 l 303 254 l 610 254 l 610 718 z "},"p":{"ha":853,"x_min":54,"x_max":831,"o":"m 310 0 l 56 0 l 56 358 l 56 614 l 56 972 l 664 972 q 782 924 733 972 q 831 806 831 875 l 831 499 q 812 428 831 460 q 761 377 793 396 q 692 358 729 358 l 310 358 l 310 0 m 576 614 l 576 718 l 310 718 l 310 614 l 576 614 z "},"q":{"ha":913,"x_min":47,"x_max":864,"o":"m 218 0 q 98 49 147 0 q 49 169 49 99 l 49 803 q 98 923 49 874 q 218 972 147 972 l 694 972 q 815 923 765 972 q 864 803 864 874 l 864 169 q 815 49 864 99 q 694 0 765 0 l 671 0 l 710 -144 l 482 -144 l 443 0 l 218 0 m 610 718 l 303 718 l 303 254 l 375 254 l 329 424 l 557 424 l 603 254 l 610 254 l 610 718 z "},"r":{"ha":867,"x_min":56,"x_max":831,"o":"m 56 307 l 56 613 l 56 972 l 310 972 l 664 972 q 782 923 733 972 q 831 806 831 874 l 831 499 q 790 400 831 440 q 692 360 749 360 l 831 0 l 576 0 l 438 360 l 310 360 l 310 0 l 56 0 l 56 307 m 310 718 l 310 613 l 576 613 l 576 718 l 310 718 z "},"s":{"ha":868,"x_min":46,"x_max":822,"o":"m 539 -1 l 47 -1 l 47 254 l 568 254 l 568 358 l 188 358 q 151 364 169 358 q 99 390 122 371 q 61 438 75 410 q 47 499 47 467 l 47 806 q 96 924 47 875 q 214 972 144 972 l 219 972 l 822 972 l 822 718 l 301 718 l 301 614 l 683 614 q 781 573 740 614 q 822 474 822 532 l 822 167 q 774 48 822 97 q 656 -1 725 -1 l 539 -1 z "},"t":{"ha":775,"x_min":0,"x_max":775,"o":"m 261 0 l 261 718 l 0 718 l 0 972 l 261 972 l 514 972 l 775 972 l 775 718 l 514 718 l 514 0 l 261 0 z "},"u":{"ha":881,"x_min":51,"x_max":828,"o":"m 222 0 q 102 49 151 0 q 53 169 53 99 l 53 972 l 307 972 l 307 254 l 574 254 l 574 972 l 828 972 l 828 328 l 828 424 l 828 169 q 805 85 828 124 q 743 23 782 46 q 658 0 704 0 l 222 0 z "},"ù":{"ha":881,"x_min":51,"x_max":828,"o":"m 222 0 q 102 49 151 0 q 53 169 53 99 l 53 972 l 307 972 l 307 254 l 574 254 l 574 972 l 828 972 l 828 328 l 828 424 l 828 169 q 805 85 828 124 q 743 23 782 46 q 658 0 704 0 l 222 0 z "},"ú":{"ha":881,"x_min":51,"x_max":828,"o":"m 222 0 q 102 49 151 0 q 53 169 53 99 l 53 972 l 307 972 l 307 254 l 574 254 l 574 972 l 828 972 l 828 328 l 828 424 l 828 169 q 805 85 828 124 q 743 23 782 46 q 658 0 704 0 l 222 0 z "},"û":{"ha":881,"x_min":51,"x_max":828,"o":"m 222 0 q 102 49 151 0 q 53 169 53 99 l 53 972 l 307 972 l 307 254 l 574 254 l 574 972 l 828 972 l 828 328 l 828 424 l 828 169 q 805 85 828 124 q 743 23 782 46 q 658 0 704 0 l 222 0 z "},"ü":{"ha":881,"x_min":51,"x_max":828,"o":"m 222 0 q 102 49 151 0 q 53 169 53 99 l 53 972 l 307 972 l 307 254 l 574 254 l 574 972 l 828 972 l 828 328 l 828 424 l 828 169 q 805 85 828 124 q 743 23 782 46 q 658 0 704 0 l 222 0 z "},"v":{"ha":764,"x_min":-6,"x_max":768,"o":"m 485 35 q 462 18 485 35 q 381 0 439 0 q 277 35 324 0 q 217 128 231 71 l -4 972 l 250 972 l 382 468 l 513 972 l 767 972 l 546 128 q 485 35 532 71 z "},"w":{"ha":1281,"x_min":-6,"x_max":1285,"o":"m 485 35 q 462 18 485 35 q 381 0 439 0 q 277 35 324 0 q 217 128 231 71 l -4 972 l 250 972 l 382 468 l 513 972 l 767 972 l 899 468 l 1031 972 l 1285 972 l 1064 128 q 1003 35 1049 71 q 899 0 957 0 q 794 35 840 0 q 733 128 749 71 l 640 486 l 546 128 q 485 35 532 71 z "},"x":{"ha":800,"x_min":6,"x_max":794,"o":"m 261 -1 l 7 -1 l 197 488 l 8 972 l 263 972 l 399 613 l 403 613 l 539 972 l 793 972 l 604 483 l 792 -1 l 538 -1 l 401 360 l 397 360 l 261 -1 z "},"y":{"ha":761,"x_min":-12,"x_max":774,"o":"m 257 279 l -12 972 l 242 972 l 381 608 l 518 972 l 772 972 l 511 294 l 511 0 l 257 0 l 257 279 z "},"ý":{"ha":761,"x_min":-12,"x_max":774,"o":"m 257 279 l -12 972 l 242 972 l 381 608 l 518 972 l 772 972 l 511 294 l 511 0 l 257 0 l 257 279 z "},"ÿ":{"ha":761,"x_min":-12,"x_max":774,"o":"m 257 279 l -12 972 l 242 972 l 381 608 l 518 972 l 772 972 l 511 294 l 511 0 l 257 0 l 257 279 z "},"z":{"ha":840,"x_min":26,"x_max":813,"o":"m 629 972 q 758 919 704 972 q 811 790 811 865 q 763 667 811 718 l 379 254 l 811 254 l 811 0 l 208 0 q 80 53 133 0 q 26 182 26 107 q 75 307 26 254 l 213 453 l 461 718 l 26 718 l 26 972 l 629 972 z "},"{":{"ha":679,"x_min":32,"x_max":657,"o":"m 538 872 q 467 681 490 760 q 461 668 465 676 q 443 636 457 660 q 412 590 429 613 q 365 540 394 568 q 300 493 335 513 q 314 483 307 488 q 478 251 433 397 q 505 174 490 213 q 528 118 519 136 l 538 99 l 657 99 l 657 -156 l 438 -156 q 256 99 333 -156 q 231 199 242 149 q 160 314 215 269 q 32 358 104 358 l 32 613 q 160 658 104 613 q 231 772 215 703 q 256 872 242 824 q 438 1126 333 1126 l 657 1126 l 657 872 l 538 872 z "},"|":{"ha":365,"x_min":56,"x_max":310,"o":"m 310 -156 l 56 -156 l 56 1128 l 310 1128 l 310 -156 z "},"}":{"ha":679,"x_min":22,"x_max":647,"o":"m 449 772 q 519 658 464 703 q 647 613 575 613 l 647 358 q 519 314 575 358 q 449 199 464 269 q 422 99 438 149 q 240 -156 346 -156 l 22 -156 l 22 99 l 142 99 q 200 251 174 163 q 364 483 246 397 q 379 493 372 488 q 282 572 324 525 q 226 650 240 619 l 213 681 q 184 763 201 715 q 154 842 167 811 l 142 872 l 22 872 l 22 1126 l 240 1126 q 422 872 346 1126 q 449 772 438 824 z "},"~":{"ha":792,"x_min":28,"x_max":763,"o":"m 563 724 l 761 724 l 621 338 q 568 269 606 296 q 485 243 531 243 q 403 269 440 243 q 351 338 367 296 l 307 454 l 229 243 l 29 243 q 174 631 32 253 q 203 678 183 657 q 251 712 224 700 q 307 724 278 724 q 388 698 351 724 q 442 631 425 672 l 485 514 l 563 724 z "}," ":{"ha":464,"x_min":0,"x_max":0,"o":""},"­":{"ha":0,"x_min":0,"x_max":0,"o":""},"‘":{"ha":326,"x_min":36,"x_max":290,"o":"m 243 1026 q 267 1022 256 1026 q 284 1008 278 1017 q 290 989 290 999 l 290 828 q 276 800 290 811 q 243 789 263 789 l 83 789 q 50 800 64 789 q 36 828 36 811 l 36 1004 l 82 1136 l 181 1136 l 143 1026 l 243 1026 z "},"’":{"ha":319,"x_min":31,"x_max":285,"o":"m 238 1136 q 271 1125 257 1136 q 285 1097 285 1114 l 285 921 l 239 789 l 140 789 l 178 899 l 78 899 q 44 910 58 899 q 31 936 31 921 l 31 1097 q 44 1125 31 1114 q 78 1136 58 1136 l 238 1136 z "},"‚":{"ha":336,"x_min":40,"x_max":294,"o":"m 247 331 q 281 319 267 331 q 294 293 294 308 l 294 117 l 249 -15 l 150 -15 l 188 94 l 88 94 q 54 106 68 94 q 40 132 40 117 l 40 293 q 54 319 40 308 q 88 331 68 331 l 247 331 z "},"“":{"ha":614,"x_min":36,"x_max":578,"o":"m 529 1026 q 563 1015 549 1026 q 576 989 576 1004 l 576 828 q 563 800 576 811 q 529 789 549 789 l 371 789 q 337 800 351 789 q 322 828 322 811 l 322 1004 l 368 1136 l 467 1136 l 429 1026 l 529 1026 m 243 1026 q 276 1015 263 1026 q 290 989 290 1004 l 290 828 q 276 800 290 811 q 243 789 263 789 l 83 789 q 50 800 64 789 q 36 828 36 811 l 36 1004 l 82 1136 l 181 1136 l 143 1026 l 243 1026 z "},"”":{"ha":607,"x_min":31,"x_max":572,"o":"m 238 1136 q 271 1125 257 1136 q 285 1097 285 1114 l 285 921 l 239 789 l 140 789 l 178 899 l 78 899 q 44 910 58 899 q 31 936 31 921 l 31 1097 q 44 1125 31 1114 q 78 1136 58 1136 l 238 1136 m 524 1136 q 557 1125 543 1136 q 571 1097 571 1114 l 571 921 l 525 789 l 426 789 l 465 899 l 365 899 q 347 901 356 899 q 331 910 338 904 q 321 922 325 915 q 317 936 317 929 l 317 1097 q 331 1125 317 1114 q 365 1136 346 1136 l 524 1136 z "},"„":{"ha":617,"x_min":39,"x_max":575,"o":"m 528 331 q 551 326 540 331 q 569 312 563 321 q 575 293 575 303 l 575 117 l 529 -15 l 431 -15 l 468 94 l 368 94 q 350 97 358 94 q 335 105 342 100 q 324 117 328 110 q 321 132 321 124 l 321 293 q 335 319 321 308 q 368 331 349 331 l 528 331 m 247 331 q 281 319 267 331 q 294 293 294 308 l 294 117 l 249 -15 l 150 -15 l 188 94 l 88 94 q 54 106 68 94 q 40 132 40 117 l 40 293 q 54 319 40 308 q 88 331 68 331 l 247 331 z "}}}
